<svg xmlns="http://www.w3.org/2000/svg" version="1.1" xmlns:xlink="http://www.w3.org/1999/xlink" xmlns:svgjs="http://svgjs.dev/svgjs" width="1500" height="1500" viewBox="0 0 1500 1500"><rect width="1500" height="1500" fill="#191552"></rect><g transform="matrix(0.6666666666666666,0,0,0.6666666666666666,249.39393939393938,392.8052943126543)"><svg viewBox="0 0 396 283" data-background-color="#191552" preserveAspectRatio="xMidYMid meet" height="1071" width="1500" xmlns="http://www.w3.org/2000/svg" xmlns:xlink="http://www.w3.org/1999/xlink"><g id="tight-bounds" transform="matrix(1,0,0,1,0.2400000000000091,0.07717326263139057)"><svg viewBox="0 0 395.52 282.8456534747373" height="282.8456534747373" width="395.52"><g><svg viewBox="0 0 395.52 282.8456534747373" height="282.8456534747373" width="395.52"><g transform="matrix(1,0,0,1,0,145.8208509490541)"><svg viewBox="0 0 395.52 137.02480252568319" height="137.02480252568319" width="395.52"><g id="textblocktransform"><svg viewBox="0 0 395.52 137.02480252568319" height="137.02480252568319" width="395.52" id="textblock"><g><svg viewBox="0 0 395.52 137.02480252568319" height="137.02480252568319" width="395.52"><g transform="matrix(1,0,0,1,0,0)"><svg width="395.52" viewBox="-0.5097200000000006 -18.992929999999998 129.86078999999998 44.989250156249994" height="137.02480252568319" data-palette-color="url(#7bea7d1e-f0d2-4928-b34d-8f73a85b86ea)"></svg></g></svg></g></svg></g></svg></g><g transform="matrix(1,0,0,1,158.0100319002748,0)"><svg viewBox="0 0 79.49993619945036 137.02480252568319" height="137.02480252568319" width="79.49993619945036"><g><svg xmlns="http://www.w3.org/2000/svg" xmlns:xlink="http://www.w3.org/1999/xlink" version="1.1" x="0" y="0" viewBox="21.679106830508623 1 56.85827385947761 98" enable-background="new 0 0 100 100" xml:space="preserve" height="137.02480252568319" width="79.49993619945036" class="icon-icon-0" data-fill-palette-color="accent" id="icon-0"></svg></g></svg></g><g></g></svg></g><defs></defs><mask id="6784fdae-2a92-4515-bee0-6304befc9ce6"><g id="SvgjsG1374"><svg viewBox="0 0 395.52 282.8456534747373" height="282.8456534747373" width="395.52"><g><svg viewBox="0 0 395.52 282.8456534747373" height="282.8456534747373" width="395.52"><g transform="matrix(1,0,0,1,0,145.8208509490541)"><svg viewBox="0 0 395.52 137.02480252568319" height="137.02480252568319" width="395.52"><g id="SvgjsG1373"><svg viewBox="0 0 395.52 137.02480252568319" height="137.02480252568319" width="395.52" id="SvgjsSvg1372"><g><svg viewBox="0 0 395.52 137.02480252568319" height="137.02480252568319" width="395.52"><g transform="matrix(1,0,0,1,0,0)"><svg width="395.52" viewBox="-0.5097200000000006 -18.992929999999998 129.86078999999998 44.989250156249994" height="137.02480252568319" data-palette-color="url(#7bea7d1e-f0d2-4928-b34d-8f73a85b86ea)"><path d="M3.581 14.801l-4.091-1.508 11.903-32.286 13.821 5.096c1.426 0.526 2.621 1.304 3.584 2.333 0.965 1.024 1.704 2.191 2.215 3.503 0.52 1.307 0.797 2.667 0.83 4.079 0.03 1.404-0.19 2.74-0.657 4.01v0c-0.549 1.489-1.35 2.795-2.405 3.92-1.048 1.127-2.255 1.972-3.62 2.534-1.362 0.571-2.791 0.786-4.288 0.647v0l3.265 15.251-4.644-1.712-3.09-14.313-8.547-3.151zM14.142-13.844l-4.947 13.417 9.777 3.604c1.12 0.413 2.214 0.461 3.283 0.145 1.06-0.313 2.015-0.898 2.865-1.758 0.85-0.859 1.492-1.88 1.928-3.062v0c0.447-1.213 0.586-2.427 0.415-3.641-0.171-1.214-0.585-2.287-1.243-3.219-0.652-0.93-1.51-1.59-2.573-1.982v0zM46.375 25.456v0c-2.408-0.298-4.529-1.048-6.362-2.249-1.839-1.208-3.371-2.725-4.596-4.549-1.218-1.83-2.086-3.825-2.604-5.985-0.511-2.166-0.632-4.337-0.363-6.514v0c0.282-2.276 0.961-4.399 2.038-6.368 1.07-1.97 2.436-3.672 4.098-5.105 1.656-1.441 3.522-2.513 5.598-3.217 2.069-0.705 4.258-0.914 6.567-0.628v0c2.408 0.298 4.527 1.064 6.355 2.298 1.836 1.235 3.355 2.773 4.558 4.615 1.203 1.842 2.064 3.839 2.583 5.993 0.514 2.146 0.638 4.291 0.373 6.434v0c-0.283 2.283-0.952 4.406-2.008 6.372-1.057 1.972-2.416 3.674-4.078 5.108-1.656 1.441-3.521 2.506-5.595 3.197-2.066 0.685-4.254 0.884-6.564 0.598zM36.827 6.701v0c-0.214 1.727-0.14 3.436 0.222 5.126 0.362 1.691 0.978 3.225 1.849 4.602 0.871 1.377 1.982 2.523 3.333 3.435 1.351 0.92 2.906 1.488 4.666 1.706v0c1.833 0.227 3.518 0.042 5.056-0.553 1.537-0.589 2.888-1.463 4.053-2.622 1.171-1.158 2.12-2.505 2.848-4.04 0.727-1.536 1.192-3.12 1.394-4.755v0c0.215-1.733 0.14-3.436-0.224-5.106-0.363-1.677-0.986-3.212-1.869-4.605-0.888-1.4-1.999-2.548-3.332-3.445-1.34-0.898-2.876-1.454-4.61-1.669v0c-1.826-0.226-3.507-0.051-5.042 0.524-1.536 0.576-2.889 1.443-4.061 2.601-1.165 1.159-2.12 2.499-2.865 4.019-0.739 1.521-1.212 3.115-1.418 4.782zM90.464-6.081l-1.682 3.708c-0.428-0.414-0.984-0.799-1.669-1.155-0.684-0.356-1.443-0.661-2.278-0.916-0.842-0.26-1.748-0.451-2.717-0.572-0.962-0.115-1.961-0.123-2.996-0.023v0c-2.634 0.254-4.531 0.939-5.689 2.055-1.158 1.116-1.654 2.544-1.487 4.282v0c0.118 1.221 0.532 2.156 1.245 2.804 0.711 0.641 1.756 1.124 3.133 1.446 1.377 0.323 3.118 0.627 5.221 0.914v0c2.432 0.282 4.552 0.71 6.363 1.286 1.803 0.57 3.232 1.43 4.287 2.581 1.048 1.145 1.671 2.746 1.869 4.803v0c0.158 1.646-0.016 3.099-0.525 4.36-0.514 1.268-1.294 2.352-2.339 3.249-1.053 0.892-2.318 1.596-3.795 2.114-1.471 0.517-3.092 0.86-4.863 1.031v0c-1.739 0.167-3.452 0.145-5.14-0.068-1.695-0.212-3.316-0.598-4.864-1.159-1.548-0.568-3.014-1.321-4.397-2.259v0l1.718-3.863c0.563 0.495 1.282 0.968 2.156 1.42 0.874 0.452 1.854 0.853 2.939 1.204 1.092 0.35 2.262 0.603 3.509 0.757 1.247 0.154 2.515 0.17 3.802 0.046v0c2.442-0.235 4.297-0.859 5.566-1.872 1.262-1.012 1.811-2.371 1.647-4.077v0c-0.124-1.287-0.601-2.28-1.432-2.976-0.831-0.697-2.011-1.233-3.541-1.608-1.523-0.376-3.371-0.717-5.543-1.023v0c-2.372-0.354-4.38-0.8-6.026-1.339-1.64-0.545-2.909-1.341-3.807-2.386-0.898-1.052-1.434-2.477-1.607-4.276v0c-0.211-2.19 0.142-4.092 1.058-5.707 0.917-1.609 2.27-2.891 4.06-3.847 1.791-0.949 3.86-1.537 6.209-1.764v0c1.546-0.149 3.002-0.128 4.366 0.062 1.365 0.197 2.653 0.528 3.864 0.994 1.217 0.466 2.345 1.057 3.385 1.774zM115.197-17.464l4.172-1.265 9.982 32.931-4.172 1.264-4.54-14.977-18.135 5.497 4.539 14.977-4.172 1.265-9.982-32.93 4.173-1.265 4.316 14.24 18.135-5.497z" opacity="1" transform="matrix(1,0,0,1,0,0)" fill="white" class="wordmark-text-0" id="SvgjsPath1371"></path></svg></g></svg></g></svg></g></svg></g><g transform="matrix(1,0,0,1,158.0100319002748,0)"><svg viewBox="0 0 79.49993619945036 137.02480252568319" height="137.02480252568319" width="79.49993619945036"><g><svg xmlns="http://www.w3.org/2000/svg" xmlns:xlink="http://www.w3.org/1999/xlink" version="1.1" x="0" y="0" viewBox="21.679106830508623 1 56.85827385947761 98" enable-background="new 0 0 100 100" xml:space="preserve" height="137.02480252568319" width="79.49993619945036" class="icon-icon-0" data-fill-palette-color="accent" id="SvgjsSvg1370"><g fill="black"><path fill-rule="evenodd" clip-rule="evenodd" d="M30.545 28.822c-1.165 7.217 0.33 14.85 6.5 19.041C30.758 19.81 45.756 8.664 59.646 1c-16.18 23.046 16.896 23.644 18.777 50.13C80.028 73.71 64.507 91.317 46.639 99c0.206-22.825-22.55-25.933-24.838-44.603C20.905 47.094 25.062 33.766 30.545 28.822z" fill="black"></path></g></svg></g></svg></g><g></g></svg></g><defs><mask></mask></defs></svg><rect width="395.52" height="282.8456534747373" fill="black" stroke="none" visibility="hidden"></rect></g></mask><linearGradient x1="0" x2="1" y1="0.578" y2="0.595" id="7bea7d1e-f0d2-4928-b34d-8f73a85b86ea"><stop stop-color="#6ee2f5" offset="0"></stop><stop stop-color="#6454f0" offset="1"></stop></linearGradient><rect width="395.52" height="282.8456534747373" fill="url(#7bea7d1e-f0d2-4928-b34d-8f73a85b86ea)" mask="url(#6784fdae-2a92-4515-bee0-6304befc9ce6)" data-fill-palette-color="primary"></rect><mask id="fffc4322-8b75-4583-beb6-abbaaffc3075"><g id="SvgjsG1383"><svg viewBox="0 0 395.52 282.8456534747373" height="282.8456534747373" width="395.52"><g><svg viewBox="0 0 395.52 282.8456534747373" height="282.8456534747373" width="395.52"><g transform="matrix(1,0,0,1,0,145.8208509490541)"><svg viewBox="0 0 395.52 137.02480252568319" height="137.02480252568319" width="395.52"><g id="SvgjsG1382"><svg viewBox="0 0 395.52 137.02480252568319" height="137.02480252568319" width="395.52" id="SvgjsSvg1381"><g><svg viewBox="0 0 395.52 137.02480252568319" height="137.02480252568319" width="395.52"><g transform="matrix(1,0,0,1,0,0)"><svg width="395.52" viewBox="-0.5097200000000006 -18.992929999999998 129.86078999999998 44.989250156249994" height="137.02480252568319" data-palette-color="url(#7bea7d1e-f0d2-4928-b34d-8f73a85b86ea)"></svg></g></svg></g></svg></g></svg></g><g transform="matrix(1,0,0,1,158.0100319002748,0)"><svg viewBox="0 0 79.49993619945036 137.02480252568319" height="137.02480252568319" width="79.49993619945036"><g><svg xmlns="http://www.w3.org/2000/svg" xmlns:xlink="http://www.w3.org/1999/xlink" version="1.1" x="0" y="0" viewBox="21.679106830508623 1 56.85827385947761 98" enable-background="new 0 0 100 100" xml:space="preserve" height="137.02480252568319" width="79.49993619945036" class="icon-icon-0" data-fill-palette-color="accent" id="SvgjsSvg1380"><g fill="white"><path fill-rule="evenodd" clip-rule="evenodd" d="M30.545 28.822c-1.165 7.217 0.33 14.85 6.5 19.041C30.758 19.81 45.756 8.664 59.646 1c-16.18 23.046 16.896 23.644 18.777 50.13C80.028 73.71 64.507 91.317 46.639 99c0.206-22.825-22.55-25.933-24.838-44.603C20.905 47.094 25.062 33.766 30.545 28.822z" fill="white"></path></g></svg></g></svg></g><g></g></svg></g><defs><mask></mask></defs><mask><g id="SvgjsG1379"><svg viewBox="0 0 395.52 282.8456534747373" height="282.8456534747373" width="395.52"><g><svg viewBox="0 0 395.52 282.8456534747373" height="282.8456534747373" width="395.52"><g transform="matrix(1,0,0,1,0,145.8208509490541)"><svg viewBox="0 0 395.52 137.02480252568319" height="137.02480252568319" width="395.52"><g id="SvgjsG1378"><svg viewBox="0 0 395.52 137.02480252568319" height="137.02480252568319" width="395.52" id="SvgjsSvg1377"><g><svg viewBox="0 0 395.52 137.02480252568319" height="137.02480252568319" width="395.52"><g transform="matrix(1,0,0,1,0,0)"><svg width="395.52" viewBox="-0.5097200000000006 -18.992929999999998 129.86078999999998 44.989250156249994" height="137.02480252568319" data-palette-color="url(#7bea7d1e-f0d2-4928-b34d-8f73a85b86ea)"><path d="M3.581 14.801l-4.091-1.508 11.903-32.286 13.821 5.096c1.426 0.526 2.621 1.304 3.584 2.333 0.965 1.024 1.704 2.191 2.215 3.503 0.52 1.307 0.797 2.667 0.83 4.079 0.03 1.404-0.19 2.74-0.657 4.01v0c-0.549 1.489-1.35 2.795-2.405 3.92-1.048 1.127-2.255 1.972-3.62 2.534-1.362 0.571-2.791 0.786-4.288 0.647v0l3.265 15.251-4.644-1.712-3.09-14.313-8.547-3.151zM14.142-13.844l-4.947 13.417 9.777 3.604c1.12 0.413 2.214 0.461 3.283 0.145 1.06-0.313 2.015-0.898 2.865-1.758 0.85-0.859 1.492-1.88 1.928-3.062v0c0.447-1.213 0.586-2.427 0.415-3.641-0.171-1.214-0.585-2.287-1.243-3.219-0.652-0.93-1.51-1.59-2.573-1.982v0zM46.375 25.456v0c-2.408-0.298-4.529-1.048-6.362-2.249-1.839-1.208-3.371-2.725-4.596-4.549-1.218-1.83-2.086-3.825-2.604-5.985-0.511-2.166-0.632-4.337-0.363-6.514v0c0.282-2.276 0.961-4.399 2.038-6.368 1.07-1.97 2.436-3.672 4.098-5.105 1.656-1.441 3.522-2.513 5.598-3.217 2.069-0.705 4.258-0.914 6.567-0.628v0c2.408 0.298 4.527 1.064 6.355 2.298 1.836 1.235 3.355 2.773 4.558 4.615 1.203 1.842 2.064 3.839 2.583 5.993 0.514 2.146 0.638 4.291 0.373 6.434v0c-0.283 2.283-0.952 4.406-2.008 6.372-1.057 1.972-2.416 3.674-4.078 5.108-1.656 1.441-3.521 2.506-5.595 3.197-2.066 0.685-4.254 0.884-6.564 0.598zM36.827 6.701v0c-0.214 1.727-0.14 3.436 0.222 5.126 0.362 1.691 0.978 3.225 1.849 4.602 0.871 1.377 1.982 2.523 3.333 3.435 1.351 0.92 2.906 1.488 4.666 1.706v0c1.833 0.227 3.518 0.042 5.056-0.553 1.537-0.589 2.888-1.463 4.053-2.622 1.171-1.158 2.12-2.505 2.848-4.04 0.727-1.536 1.192-3.12 1.394-4.755v0c0.215-1.733 0.14-3.436-0.224-5.106-0.363-1.677-0.986-3.212-1.869-4.605-0.888-1.4-1.999-2.548-3.332-3.445-1.34-0.898-2.876-1.454-4.61-1.669v0c-1.826-0.226-3.507-0.051-5.042 0.524-1.536 0.576-2.889 1.443-4.061 2.601-1.165 1.159-2.12 2.499-2.865 4.019-0.739 1.521-1.212 3.115-1.418 4.782zM90.464-6.081l-1.682 3.708c-0.428-0.414-0.984-0.799-1.669-1.155-0.684-0.356-1.443-0.661-2.278-0.916-0.842-0.26-1.748-0.451-2.717-0.572-0.962-0.115-1.961-0.123-2.996-0.023v0c-2.634 0.254-4.531 0.939-5.689 2.055-1.158 1.116-1.654 2.544-1.487 4.282v0c0.118 1.221 0.532 2.156 1.245 2.804 0.711 0.641 1.756 1.124 3.133 1.446 1.377 0.323 3.118 0.627 5.221 0.914v0c2.432 0.282 4.552 0.71 6.363 1.286 1.803 0.57 3.232 1.43 4.287 2.581 1.048 1.145 1.671 2.746 1.869 4.803v0c0.158 1.646-0.016 3.099-0.525 4.36-0.514 1.268-1.294 2.352-2.339 3.249-1.053 0.892-2.318 1.596-3.795 2.114-1.471 0.517-3.092 0.86-4.863 1.031v0c-1.739 0.167-3.452 0.145-5.14-0.068-1.695-0.212-3.316-0.598-4.864-1.159-1.548-0.568-3.014-1.321-4.397-2.259v0l1.718-3.863c0.563 0.495 1.282 0.968 2.156 1.42 0.874 0.452 1.854 0.853 2.939 1.204 1.092 0.35 2.262 0.603 3.509 0.757 1.247 0.154 2.515 0.17 3.802 0.046v0c2.442-0.235 4.297-0.859 5.566-1.872 1.262-1.012 1.811-2.371 1.647-4.077v0c-0.124-1.287-0.601-2.28-1.432-2.976-0.831-0.697-2.011-1.233-3.541-1.608-1.523-0.376-3.371-0.717-5.543-1.023v0c-2.372-0.354-4.38-0.8-6.026-1.339-1.64-0.545-2.909-1.341-3.807-2.386-0.898-1.052-1.434-2.477-1.607-4.276v0c-0.211-2.19 0.142-4.092 1.058-5.707 0.917-1.609 2.27-2.891 4.06-3.847 1.791-0.949 3.86-1.537 6.209-1.764v0c1.546-0.149 3.002-0.128 4.366 0.062 1.365 0.197 2.653 0.528 3.864 0.994 1.217 0.466 2.345 1.057 3.385 1.774zM115.197-17.464l4.172-1.265 9.982 32.931-4.172 1.264-4.54-14.977-18.135 5.497 4.539 14.977-4.172 1.265-9.982-32.93 4.173-1.265 4.316 14.24 18.135-5.497z" opacity="1" transform="matrix(1,0,0,1,0,0)" fill="black" class="wordmark-text-0" id="SvgjsPath1376"></path></svg></g></svg></g></svg></g></svg></g><g transform="matrix(1,0,0,1,158.0100319002748,0)"><svg viewBox="0 0 79.49993619945036 137.02480252568319" height="137.02480252568319" width="79.49993619945036"><g><svg xmlns="http://www.w3.org/2000/svg" xmlns:xlink="http://www.w3.org/1999/xlink" version="1.1" x="0" y="0" viewBox="21.679106830508623 1 56.85827385947761 98" enable-background="new 0 0 100 100" xml:space="preserve" height="137.02480252568319" width="79.49993619945036" class="icon-icon-0" data-fill-palette-color="accent" id="SvgjsSvg1375"><g fill="black"><path fill-rule="evenodd" clip-rule="evenodd" d="M30.545 28.822c-1.165 7.217 0.33 14.85 6.5 19.041C30.758 19.81 45.756 8.664 59.646 1c-16.18 23.046 16.896 23.644 18.777 50.13C80.028 73.71 64.507 91.317 46.639 99c0.206-22.825-22.55-25.933-24.838-44.603C20.905 47.094 25.062 33.766 30.545 28.822z" fill="black"></path></g></svg></g></svg></g><g></g></svg></g><defs><mask></mask></defs></svg><rect width="395.52" height="282.8456534747373" fill="black" stroke="none" visibility="hidden"></rect></g></mask></svg><rect width="395.52" height="282.8456534747373" fill="black" stroke="none" visibility="hidden"></rect></g></mask><linearGradient x1="0" x2="1" y1="0.578" y2="0.595" id="b8e8b6a7-787e-401f-95c0-c19acf3ae11b"><stop stop-color="#6ee2f5" offset="0"></stop><stop stop-color="#6454f0" offset="1"></stop></linearGradient><rect width="395.52" height="282.8456534747373" fill="url(#b8e8b6a7-787e-401f-95c0-c19acf3ae11b)" mask="url(#fffc4322-8b75-4583-beb6-abbaaffc3075)" data-fill-palette-color="accent"></rect></svg><rect width="395.52" height="282.8456534747373" fill="none" stroke="none" visibility="hidden"></rect></g></svg></g></svg>